<?xml version="1.0" encoding="UTF-8" standalone="no"?>
<svg
   width="433.8476"
   height="999.25391"
   viewBox="0 0 433.84759 999.25391"
   version="1.1"
   id="svg5"
   sodipodi:docname="a.svg"
   inkscape:version="1.3 (0e150ed6c4, 2023-07-21)"
   xmlns:inkscape="http://www.inkscape.org/namespaces/inkscape"
   xmlns:sodipodi="http://sodipodi.sourceforge.net/DTD/sodipodi-0.dtd"
   xmlns="http://www.w3.org/2000/svg"
   xmlns:svg="http://www.w3.org/2000/svg">
  <defs
     id="defs1" />
  <sodipodi:namedview
     id="namedview1"
     pagecolor="#ffffff"
     bordercolor="#000000"
     borderopacity="0.25"
     inkscape:showpageshadow="2"
     inkscape:pageopacity="0.0"
     inkscape:pagecheckerboard="0"
     inkscape:deskcolor="#d1d1d1"
     inkscape:zoom="0.817"
     inkscape:cx="217.25826"
     inkscape:cy="500"
     inkscape:window-width="1920"
     inkscape:window-height="1094"
     inkscape:window-x="-11"
     inkscape:window-y="-11"
     inkscape:window-maximized="1"
     inkscape:current-layer="svg5" />
  <path
     id="rect1"
     style="fill:#ff0000;fill-opacity:0.533333;stroke:#66ccff;stroke-width:0;stroke-dasharray:none"
     d="m 58.431333,189.40762 v 75.7393 503.06376 h 75.739297 c 25.50296,0 76.47519,-2.2746 76.47519,-2.2746 170.59858,-5.11658 188.24855,-154.22833 188.24855,-184.19691 0,-29.96861 -5.14108,-78.39431 -36.40201,-122.08019 C 297.5936,368.96567 134.17063,388.76996 134.17063,388.76996 V 265.4856 l 117.14209,0.52681 117.14209,0.52683 0.0962,-75.7393 -234.38036,-1.05369 v -0.33868 H 58.527455 Z M 136.7461,464.51763 c 0,0 42.37626,-0.12011 105.93233,2.33313 44.52382,1.71852 104.73912,41.28598 104.73912,100.74264 0,62.02296 -35.2052,120.08031 -82.08866,123.84958 -60.54865,4.86793 -131.1576,-2.61426 -131.1576,-2.61426 z"
     sodipodi:nodetypes="cccscssccccccccccssscc"
     inkscape:label="glyph_a" />
</svg>
