<?xml version="1.0" encoding="UTF-8" standalone="no"?>
<svg
   width="525.04041"
   height="1003.5683"
   viewBox="0 0 525.0404 1003.5683"
   version="1.1"
   id="svg5"
   sodipodi:docname="b.svg"
   inkscape:version="1.3 (0e150ed6c4, 2023-07-21)"
   xmlns:inkscape="http://www.inkscape.org/namespaces/inkscape"
   xmlns:sodipodi="http://sodipodi.sourceforge.net/DTD/sodipodi-0.dtd"
   xmlns="http://www.w3.org/2000/svg"
   xmlns:svg="http://www.w3.org/2000/svg">
  <defs
     id="defs1" />
  <sodipodi:namedview
     id="namedview1"
     pagecolor="#ffffff"
     bordercolor="#000000"
     borderopacity="0.25"
     inkscape:showpageshadow="2"
     inkscape:pageopacity="0.0"
     inkscape:pagecheckerboard="0"
     inkscape:deskcolor="#d1d1d1"
     inkscape:zoom="0.817"
     inkscape:cx="263.76989"
     inkscape:cy="500"
     inkscape:window-width="1920"
     inkscape:window-height="1094"
     inkscape:window-x="-11"
     inkscape:window-y="-11"
     inkscape:window-maximized="1"
     inkscape:current-layer="svg5" />
  <path
     id="path25"
     style="fill:#ff0000;fill-opacity:0.533333;stroke:none;stroke-width:110.955"
     inkscape:label="glyph_b"
     d="m 212.69038,0 v 190.49328 h 1.2976 v 5.87482 c -37.48347,13.03617 -67.7188,33.78139 -89.47887,50.98805 -40.61163,32.11309 -76.2217,87.8828 -76.2217,137.83815 l -0.47862,72.58509 v 6.74829 h 0.47456 v 12.65672 h -0.47456 v 45.83126 37.80222 c 0,11.43693 0.009,22.72324 0.65497,33.89681 0.42824,7.44858 1.13636,14.84719 2.3096,22.20597 1.04836,6.57583 2.54301,13.11516 4.46386,19.63597 0.22836,0.77638 0.39088,1.55492 0.63386,2.3306 0.41199,1.31512 0.96391,2.62565 1.41939,3.93895 0.80691,2.32719 1.56315,4.65713 2.51536,6.97927 l 0.004,0.004 c 1.43003,3.3499 2.98725,6.76716 4.67384,10.22532 l 0.004,0.004 c 1.68675,3.45827 3.49869,6.9573 5.44232,10.48148 l 0.004,0.004 c 1.94377,3.52425 4.01389,7.07219 6.21496,10.62006 l 0.004,0.004 c 2.20121,3.5479 4.53285,7.09932 6.99184,10.62845 l 0.004,0.004 c 2.45905,3.52913 5.04311,7.03861 7.76032,10.50667 l 0.004,0.004 c 2.71732,3.46803 5.56562,6.8943 8.5414,10.25891 l 0.004,0.004 c 2.97597,3.36453 6.07917,6.66637 9.31404,9.88516 l 0.004,0.004 c 3.23503,3.21871 6.60081,6.35484 10.09514,9.38545 l 0.004,0.004 c 3.49449,3.03052 7.11786,5.95549 10.87198,8.75557 1.17748,0.87825 2.45028,1.65833 3.65337,2.51119 2.6344,1.86755 5.24673,3.76116 8.00393,5.4969 h 0.004 c 4.01503,2.52748 8.16271,4.90978 12.43838,7.12203 h 0.004 c 4.27575,2.21212 8.67842,4.25548 13.21518,6.10997 h 0.004 c 4.53675,1.85443 9.20238,3.52176 14.00049,4.9762 h 0.004 c 2.39845,0.72696 4.83045,1.40078 7.29421,2.01986 h 0.004 c 2.46385,0.61902 4.96216,1.18647 7.4915,1.69233 h 0.004 c 2.52933,0.5058 5.08998,0.95223 7.68474,1.33959 h 0.004 c 2.59485,0.38726 5.22164,0.71491 7.88206,0.97842 h 0.004 c 2.66042,0.26346 5.35344,0.46611 8.07943,0.60051 2.72738,0.13459 5.48791,0.20146 8.28105,0.20146 h 0.004 0.0242 c 72.54379,-0.0112 128.51727,-36.34158 163.10961,-63.69515 40.61178,-32.11309 76.22171,-87.8828 76.22171,-137.83815 l 0.47862,-72.58508 v -19.4034 -27.07715 -17.75468 -38.80163 c 0,-11.43695 -0.0171,-22.72399 -0.65497,-33.89683 -0.42826,-7.44858 -1.13652,-14.84722 -2.3097,-22.20597 -1.04828,-6.57585 -2.54309,-13.11517 -4.46386,-19.63597 -0.22918,-0.7776 -0.39087,-1.55787 -0.63385,-2.33481 -1.14245,-3.64393 -2.44572,-7.28301 -3.93477,-10.91401 l -0.004,-0.004 c -1.42995,-3.34986 -2.98733,-6.76723 -4.67383,-10.22531 l -0.004,-0.004 c -1.68667,-3.45815 -3.4987,-6.95737 -5.44224,-10.48148 l -0.004,-0.004 c -1.9437,-3.52418 -4.01402,-7.0723 -6.21498,-10.62004 l -0.004,-0.004 c -2.20112,-3.5478 -4.53292,-7.09938 -6.99182,-10.62845 l -0.004,-0.004 c -2.45907,-3.52906 -5.04319,-7.0387 -7.76033,-10.50667 l -0.004,-0.004 c -2.71709,-3.46796 -5.56562,-6.89439 -8.54135,-10.25892 l -0.004,-0.004 c -2.97588,-3.36451 -6.07927,-6.66644 -9.31406,-9.88519 l -0.004,-0.004 c -3.23485,-3.2187 -6.60088,-6.3549 -10.09512,-9.38545 l -0.004,-0.004 c -3.49432,-3.03051 -7.11796,-5.95553 -10.87199,-8.75557 l -0.004,-0.004 c -3.75478,-2.80044 -7.63805,-5.47633 -11.65308,-8.00389 h -0.004 c -4.01503,-2.52744 -8.16266,-4.90982 -12.4383,-7.12202 h -0.004 c -4.27558,-2.21212 -8.67864,-4.2555 -13.21524,-6.11001 h -0.004 c -4.53666,-1.8544 -9.20254,-3.52171 -14.00057,-4.97619 h -0.004 c -2.39835,-0.72696 -4.83044,-1.40074 -7.2942,-2.01985 h -0.004 c -2.46375,-0.61907 -4.96232,-1.18644 -7.49158,-1.69233 h -0.004 c -2.52927,-0.50586 -5.08999,-0.95221 -7.68477,-1.33958 h -0.004 c -2.59485,-0.38728 -5.22187,-0.71485 -7.88205,-0.97844 h -0.004 c -0.40954,-0.0407 -0.83219,-0.0543 -1.24295,-0.0925 V 60.772366 0 Z m 64.60218,243.48016 h 0.0173 0.004 c 3.17888,-0.0301 6.25114,0.0215 9.23425,0.1385 0.89673,0.0357 1.73258,0.11523 2.61199,0.16384 2.07071,0.11411 4.13794,0.23029 6.11422,0.41573 0.97002,0.091 1.88273,0.22801 2.83034,0.33593 1.76076,0.20037 3.52227,0.39736 5.20716,0.65513 1.1202,0.17136 2.18414,0.38754 3.27119,0.58369 1.43044,0.25819 2.86698,0.51009 4.24135,0.81044 1.08955,0.23811 2.12809,0.51275 3.18304,0.77686 1.31424,0.32902 2.63125,0.65602 3.89274,1.02462 1.01968,0.29806 1.99985,0.62977 2.98571,0.95326 1.19097,0.39061 2.37642,0.78237 3.51904,1.2094 0.96482,0.36062 1.89526,0.74775 2.8262,1.1338 1.10783,0.45938 2.2061,0.92473 3.26704,1.41938 0.88795,0.41412 1.75224,0.85087 2.60777,1.28918 0.99229,0.50813 1.96873,1.02633 2.91851,1.56633 0.85439,0.48604 1.69048,0.98374 2.51114,1.49498 0.89518,0.55735 1.76866,1.13074 2.62459,1.7175 0.79312,0.5439 1.57899,1.09437 2.33903,1.66293 0.81101,0.60645 1.59412,1.23479 2.36845,1.86869 0.72974,0.59793 1.45612,1.19654 2.15424,1.81831 0.71429,0.63602 1.40088,1.29229 2.08282,1.95267 0.70455,0.68244 1.40844,1.36667 2.07868,2.07446 0.61435,0.64888 1.19788,1.32085 1.78468,1.99047 0.65822,0.75118 1.3209,1.49942 1.94432,2.27604 0.52984,0.6595 1.02701,1.34248 1.5327,2.01986 0.62815,0.84227 1.26409,1.67983 1.85608,2.54899 0.40632,0.59669 0.78174,1.21766 1.17163,1.8267 0.63304,0.98982 1.27403,1.97265 1.86447,2.9941 0.23729,0.41054 0.44939,0.84013 0.68018,1.2556 2.05956,3.71206 3.78296,7.67044 5.34146,11.74966 0.67286,1.75775 1.30101,3.54797 1.88975,5.36672 0.64928,2.0088 1.27248,4.03658 1.82667,6.1142 0.46563,1.74363 0.88552,3.51957 1.28924,5.30794 0.50949,2.26162 1.00513,4.53477 1.42353,6.86166 0.29985,1.66607 0.55745,3.36369 0.81464,5.06017 0.39006,2.57772 0.77037,5.15771 1.07088,7.79811 0.15115,1.32536 0.26814,2.67509 0.39898,4.01455 0.30394,3.1191 0.59971,6.24638 0.80612,9.43166 0.0407,0.62003 0.0649,1.25063 0.10087,1.87288 0.7281,12.24755 0.85007,24.89754 0.85667,37.56703 7e-5,0.19759 0.004,0.39445 0.004,0.59207 h -0.44126 v 91.99009 h -0.004 v 91.01586 c 0,44.77243 -12.61125,76.24756 -30.85237,98.20929 -21.55374,21.27337 -49.21487,39.11567 -83.75944,45.17196 -0.92264,0.15094 -1.84488,0.30335 -2.75468,0.43669 -2.44565,0.38024 -4.94411,0.66895 -7.45804,0.92808 -1.53812,0.15437 -3.0902,0.32154 -4.573,0.42831 -3.5538,0.25475 -7.14233,0.44484 -10.83004,0.44516 h -0.0171 -0.004 c -3.1788,0.0301 -6.25129,-0.0214 -9.23433,-0.13849 -0.89671,-0.0357 -1.73256,-0.11523 -2.61197,-0.16383 -2.0708,-0.11411 -4.13786,-0.23029 -6.11414,-0.41574 -0.97002,-0.091 -1.88266,-0.22803 -2.83034,-0.33594 -1.76078,-0.20039 -3.5223,-0.39752 -5.20716,-0.65506 -1.1201,-0.17135 -2.18408,-0.38752 -3.27128,-0.58369 -1.43044,-0.25815 -2.86691,-0.51016 -4.24128,-0.81042 -1.08948,-0.23809 -2.12816,-0.51276 -3.18311,-0.77685 -1.31415,-0.32896 -2.63124,-0.65604 -3.89274,-1.02464 -1.01967,-0.29806 -1.99986,-0.62979 -2.98572,-0.95326 -1.19098,-0.3907 -2.3764,-0.78238 -3.51902,-1.2094 -0.96475,-0.36062 -1.89519,-0.74767 -2.82615,-1.1338 -1.10798,-0.45937 -2.20607,-0.92472 -3.26703,-1.41935 -0.88786,-0.41412 -1.75215,-0.85089 -2.60778,-1.2892 -0.99226,-0.50814 -1.96887,-1.02634 -2.91857,-1.56634 -0.85447,-0.48602 -1.6905,-0.98374 -2.51115,-1.49495 -0.89517,-0.55738 -1.76874,-1.13078 -2.62459,-1.71753 -0.7931,-0.54387 -1.57899,-1.0944 -2.33903,-1.66293 -0.811,-0.60644 -1.59396,-1.23479 -2.36836,-1.86869 -0.72975,-0.59793 -1.45614,-1.19654 -2.15427,-1.8183 -0.71428,-0.63605 -1.40102,-1.29228 -2.0829,-1.95267 -0.70452,-0.68245 -1.40841,-1.36665 -2.07857,-2.07447 -0.61434,-0.64888 -1.19796,-1.32084 -1.78476,-1.99047 -0.65739,-0.75118 -1.32075,-1.4994 -1.94426,-2.27602 -0.52981,-0.65953 -1.02706,-1.3425 -1.53275,-2.01988 -0.62815,-0.84226 -1.26412,-1.67983 -1.85612,-2.54897 -0.40629,-0.59673 -0.78173,-1.21766 -1.17161,-1.8267 -0.63303,-0.98984 -1.27401,-1.97267 -1.86446,-2.99412 -0.23728,-0.41053 -0.44939,-0.8401 -0.68018,-1.2556 -2.05964,-3.71203 -3.78272,-7.67043 -5.34149,-11.74966 -0.67283,-1.75775 -1.3009,-3.54797 -1.88964,-5.36671 -0.64928,-2.00881 -1.27255,-4.03659 -1.82677,-6.1142 -0.46562,-1.74363 -0.88535,-3.51958 -1.28913,-5.30792 -0.50951,-2.26167 -1.0053,-4.5348 -1.42363,-6.86169 -0.29984,-1.66607 -0.55744,-3.36368 -0.81463,-5.06018 -0.39006,-2.57771 -0.77037,-5.15771 -1.07079,-7.7981 -0.15115,-1.32536 -0.26818,-2.67508 -0.39901,-4.01455 -0.30391,-3.11907 -0.59971,-6.24637 -0.80612,-9.43166 -0.0407,-0.62 -0.0649,-1.25063 -0.10087,-1.87288 -0.72811,-12.24758 -0.85008,-24.89755 -0.85666,-37.56702 -1.8e-4,-0.1978 -0.004,-0.39445 -0.004,-0.59208 h 0.44125 V 464.52774 h 0.004 v -75.42801 c 0,-44.7724 12.61132,-76.24756 30.85235,-98.20926 21.55399,-21.27341 49.21503,-39.1157 83.75943,-45.17199 0.92273,-0.15094 1.84498,-0.30336 2.75476,-0.4367 2.44575,-0.38022 4.94398,-0.66894 7.45796,-0.92805 1.53803,-0.15438 3.09038,-0.32156 4.57308,-0.42833 3.55391,-0.25475 7.14217,-0.44482 10.82998,-0.44514 z" />
</svg>
