<?xml version="1.0" encoding="UTF-8" standalone="no"?>
<svg
   width="527.65723"
   height="1008.1353"
   viewBox="0 0 527.65722 1008.1353"
   version="1.1"
   id="svg5"
   sodipodi:docname="g.svg"
   inkscape:version="1.3 (0e150ed6c4, 2023-07-21)"
   xmlns:inkscape="http://www.inkscape.org/namespaces/inkscape"
   xmlns:sodipodi="http://sodipodi.sourceforge.net/DTD/sodipodi-0.dtd"
   xmlns="http://www.w3.org/2000/svg"
   xmlns:svg="http://www.w3.org/2000/svg">
  <defs
     id="defs1" />
  <sodipodi:namedview
     id="namedview1"
     pagecolor="#ffffff"
     bordercolor="#000000"
     borderopacity="0.25"
     inkscape:showpageshadow="2"
     inkscape:pageopacity="0.0"
     inkscape:pagecheckerboard="0"
     inkscape:deskcolor="#d1d1d1"
     inkscape:zoom="0.817"
     inkscape:cx="263.76989"
     inkscape:cy="502.44798"
     inkscape:window-width="1920"
     inkscape:window-height="1094"
     inkscape:window-x="-11"
     inkscape:window-y="-11"
     inkscape:window-maximized="1"
     inkscape:current-layer="svg5" />
  <g
     id="g30"
     inkscape:label="glyph_g"
     transform="matrix(8.1963259,0,0,8.1963259,4484.6351,834.80185)">
    <path
       id="path28"
       style="fill:#ff0000;fill-opacity:0.533333;stroke:none;stroke-width:13.9252"
       inkscape:label="glyph_k"
       d="m -510.16765,-78.191201 c -9.14598,0 -16.20287,4.54038 -20.56409,7.957767 -3.35179,2.626409 -6.88982,6.359405 -8.16168,10.64603 -2.05539,6.9274 -2.73128,21.350009 -1.13457,32.302193 0.13218,0.821543 0.32062,1.638544 0.56278,2.453224 0.0289,0.09716 0.0493,0.194634 0.0799,0.291701 0.81865,2.587495 3.09415,6.915441 6.66975,10.438272 l 5.4e-4,5.25e-4 c 0.40799,0.401965 0.86322,0.761181 1.27274,1.172575 l 5.3e-4,5.25e-4 c 2.30476,2.315273 6.01759,4.3111926 10.67594,5.000359 h 5.3e-4 c 0.32714,0.048427 0.65669,0.1222415 0.99374,0.1222415 h 5.3e-4 c 0.33705,0 0.67453,0.075023 1.01862,0.075023 h 5.3e-4 c 0.34428,0 0.69189,0.025183 1.04404,0.025183 h 0.003 c 9.14596,0 16.20284,-4.5403395 20.56409,-7.9577665 4.49827,-3.524807 8.50735,-9.330825 9.41536,-14.921336 h -11.13971 v -0.158442 c -0.41932,4.218746 -1.82958,7.351509 -3.74836,9.640817 -2.71742,2.657792 -6.20481,4.886932 -10.56,5.643571 -0.11634,0.01888 -0.2326,0.03791 -0.3473,0.05456 -3.60187,0.5549 -9.70061,0.37927 -12.79419,-3.439551 -3.21656,-6.510411 -3.70568,-11.888579 -3.91937,-19.225497 h 19.67465 v 0.05719 c 0,0 1.41765,-0.01656 2.12618,0 11.96814,0.279763 19.18019,-9.487013 19.35215,-19.350926 0.12026,-6.897926 -0.22644,-9.483494 -7.34888,-15.604906 l -5.4e-4,-5.24e-4 c -0.44057,-0.378615 -0.89738,-0.744056 -1.37069,-1.093879 -0.14845,-0.109727 -0.30893,-0.207186 -0.46061,-0.313735 -2.87885,-2.084606 -6.29974,-3.349848 -9.83891,-3.714988 h -5.2e-4 c -0.33542,-0.03289 -0.67495,-0.05817 -1.01863,-0.07503 -0.34386,-0.01685 -0.69189,-0.02518 -1.04403,-0.02518 h -5.3e-4 z m -1.30241,7.473522 h 0.002 5.4e-4 c 7.02963,0 12.36277,2.277762 12.67136,12.616584 0.16578,5.554512 -1.65073,8.712124 -3.7919,10.506965 -2.27049,1.99169 -5.10211,2.362498 -7.97149,2.362498 h -19.67412 c -0.0611,-6.662007 0.83038,-14.036984 4.97398,-19.562841 4.88406,-4.776886 10.0036,-5.923206 13.78951,-5.923206 z"
       sodipodi:nodetypes="ssscscssssccsssssssccccccccccssccscccsscsscssssccss" />
    <path
       id="path30"
       style="fill:#ff0000;fill-opacity:0.533333;stroke:#66ccff;stroke-width:0;stroke-dasharray:none"
       d="m -539.97295,-9.5069133 c 0.59418,3.3409522 3.95293,6.2940007 8.96121,8.3002686 4.25245,1.70348913 9.68713,2.7253774 15.60888,2.7254149 7.06686,2.78e-5 13.43963,-1.45515064 17.93794,-3.7873656 3.71089,-1.923971 6.14096,-4.4455565 6.63732,-7.2383179 h -2.07378 c -3.87896,4.2636738 -12.58332,7.1577784 -22.50148,7.1644206 -9.91348,-0.00741 -18.6167,-2.9004666 -22.49631,-7.1644206 z" />
  </g>
</svg>
