<?xml version="1.0" encoding="UTF-8" standalone="no"?>
<svg
   width="527.65723"
   height="1008.1353"
   viewBox="0 0 527.65722 1008.1353"
   version="1.1"
   id="svg5"
   sodipodi:docname="g - コピー.svg"
   inkscape:version="1.3 (0e150ed6c4, 2023-07-21)"
   xmlns:inkscape="http://www.inkscape.org/namespaces/inkscape"
   xmlns:sodipodi="http://sodipodi.sourceforge.net/DTD/sodipodi-0.dtd"
   xmlns="http://www.w3.org/2000/svg"
   xmlns:svg="http://www.w3.org/2000/svg">
  <defs
     id="defs1" />
  <sodipodi:namedview
     id="namedview1"
     pagecolor="#ffffff"
     bordercolor="#000000"
     borderopacity="0.25"
     inkscape:showpageshadow="2"
     inkscape:pageopacity="0.0"
     inkscape:pagecheckerboard="0"
     inkscape:deskcolor="#d1d1d1"
     inkscape:zoom="0.817"
     inkscape:cx="263.76989"
     inkscape:cy="502.44798"
     inkscape:window-width="1920"
     inkscape:window-height="1094"
     inkscape:window-x="-11"
     inkscape:window-y="-11"
     inkscape:window-maximized="1"
     inkscape:current-layer="svg5" />
  <path
     id="path28"
     style="fill:#ff0000;fill-opacity:0.533333;stroke:none;stroke-width:114.135"
     inkscape:label="glyph_k"
     d="m 303.13478,193.92128 c -74.96344,0 -132.80401,37.21444 -168.54999,65.22446 -27.47236,21.5269 -56.471207,52.12375 -66.895786,87.25833 -16.846646,56.77923 -22.386461,174.99163 -9.299305,264.7593 1.08339,6.73363 2.627906,13.43004 4.612728,20.10742 0.236874,0.79636 0.404079,1.59529 0.654887,2.39088 6.709922,21.20795 25.360661,56.68121 54.667446,85.55548 l 0.004,0.004 c 3.34402,3.29464 7.07524,6.23889 10.4318,9.61081 l 0.004,0.004 c 18.89056,18.97673 49.32213,35.33594 87.50348,40.98457 h 0.004 c 2.68134,0.39693 5.38244,1.00193 8.14501,1.00193 h 0.004 c 2.76257,0 5.52867,0.61492 8.34894,0.61492 h 0.004 c 2.82184,0 5.67096,0.2064 8.5573,0.2064 h 0.0246 c 74.96326,0 132.80375,-37.2141 168.54998,-65.22444 36.86929,-28.89047 69.72901,-76.47849 77.17136,-122.30014 h -91.3047 v -1.29864 c -3.43688,34.57822 -14.99583,60.25537 -30.72278,79.01928 -22.27286,21.78413 -50.85664,40.05489 -86.5532,46.25655 -0.95356,0.15474 -1.90646,0.31072 -2.84658,0.44719 -29.5221,4.54814 -79.50936,3.10862 -104.86535,-28.19168 -26.36398,-53.36145 -30.37296,-97.44267 -32.12444,-157.57844 h 161.25985 v 0.46875 c 0,0 11.61952,-0.13573 17.42686,0 98.09478,2.29303 157.20709,-77.75865 158.61653,-158.6065 0.98569,-56.53765 -1.85598,-77.72981 -60.23382,-127.90289 l -0.004,-0.004 c -3.61106,-3.10325 -7.35522,-6.09852 -11.23462,-8.96579 -1.21675,-0.89936 -2.53209,-1.69816 -3.77531,-2.57147 -23.596,-17.08611 -51.63473,-27.45645 -80.64292,-30.44925 h -0.004 c -2.74921,-0.26958 -5.53211,-0.47679 -8.34902,-0.61498 -2.81839,-0.1381 -5.67096,-0.20638 -8.55721,-0.20638 h -0.004 z m -10.67498,61.25543 h 0.0164 0.004 c 57.61714,0 101.32929,18.66928 103.85859,103.40963 1.35879,45.52659 -13.52992,71.40741 -31.07964,86.11851 -18.60968,16.32454 -41.81856,19.3638 -65.33693,19.3638 h -161.2555 c -0.5008,-54.60398 6.80606,-115.05169 40.76836,-160.34342 40.03135,-39.15291 81.99276,-48.54852 113.02332,-48.54852 z"
     sodipodi:nodetypes="ssscscssssccsssssssccccccccccssccscccsscsscssssccss" />
</svg>
