<?xml version="1.0" encoding="UTF-8" standalone="no"?>
<svg
   width="537.38599"
   height="1000"
   viewBox="0 0 537.38598 1000"
   version="1.1"
   id="svg5"
   sodipodi:docname="l.svg"
   inkscape:version="1.3 (0e150ed6c4, 2023-07-21)"
   xmlns:inkscape="http://www.inkscape.org/namespaces/inkscape"
   xmlns:sodipodi="http://sodipodi.sourceforge.net/DTD/sodipodi-0.dtd"
   xmlns="http://www.w3.org/2000/svg"
   xmlns:svg="http://www.w3.org/2000/svg">
  <defs
     id="defs1" />
  <sodipodi:namedview
     id="namedview1"
     pagecolor="#ffffff"
     bordercolor="#000000"
     borderopacity="0.25"
     inkscape:showpageshadow="2"
     inkscape:pageopacity="0.0"
     inkscape:pagecheckerboard="0"
     inkscape:deskcolor="#d1d1d1"
     inkscape:zoom="0.817"
     inkscape:cx="300.4896"
     inkscape:cy="500"
     inkscape:window-width="1920"
     inkscape:window-height="1094"
     inkscape:window-x="-11"
     inkscape:window-y="-11"
     inkscape:window-maximized="1"
     inkscape:current-layer="svg5" />
  <path
     id="path8"
     style="fill:#ff0000;fill-opacity:0.533333;stroke-width:111.15"
     d="m 315.74655,183.98392 c -4.54197,5.9e-4 -9.02091,0.14281 -13.432,0.41645 -4.41114,0.27378 -8.75447,0.67827 -13.03235,1.20313 -4.27789,0.52481 -8.49041,1.16876 -12.63269,1.92244 -4.14235,0.75374 -8.21607,1.61831 -12.22043,2.57871 -4.00436,0.96039 -7.93564,2.01848 -11.79982,3.16343 -3.86386,1.14496 -7.65757,2.37772 -11.37905,3.68508 -3.72148,1.30735 -7.37353,2.68758 -10.95004,4.13517 -3.57652,1.44759 -7.0791,2.96074 -10.50835,4.5264 -3.42915,1.56566 -6.78285,3.18452 -10.06241,4.84611 -3.27945,1.6616 -6.48483,3.36738 -9.61224,5.10271 -3.12747,1.73537 -6.18071,3.50086 -9.15377,5.28782 -2.97314,1.78695 -5.86633,3.59341 -8.68267,5.40981 -5.63239,3.63278 -10.94752,7.30294 -15.93915,10.92057 -4.99133,3.61764 -9.6598,7.18409 -13.99142,10.60928 -2.23389,1.76639 -4.45233,3.60634 -6.65082,5.51079 -2.19842,1.90443 -4.37589,3.87353 -6.52879,5.90617 -2.15283,2.03268 -4.28018,4.12529 -6.37731,6.27641 -2.09716,2.15111 -4.16516,4.36154 -6.19643,6.62131 -2.03138,2.25984 -4.0266,4.56974 -5.98193,6.92843 -1.95542,2.35873 -3.87291,4.76661 -5.74219,7.21449 -1.86923,2.44786 -3.69144,4.93544 -5.46443,7.46268 -1.77308,2.52721 -3.49495,5.09305 -5.16163,7.68982 -1.66667,2.59681 -3.27913,5.22672 -4.82931,7.88336 -1.5502,2.65659 -3.03973,5.34073 -4.46334,8.04739 -1.42352,2.70665 -2.7811,5.43511 -4.06786,8.18201 -1.28676,2.74694 -2.50311,5.50978 -3.64294,8.2872 -1.13989,2.77741 -2.20167,5.569 -3.18454,8.36711 -0.9828,2.79814 -1.88499,5.60431 -2.70066,8.41338 -0.81568,2.80906 -1.5449,5.61998 -2.18328,8.43022 -0.63821,2.81022 -1.1855,5.62018 -1.63639,8.42179 h 88.51305 v 1.27044 c 0.41679,-4.22838 0.95609,-8.31933 1.61115,-12.27934 0.65531,-3.96004 1.42661,-7.78915 2.30531,-11.48848 0.87858,-3.69929 1.86577,-7.26827 2.95302,-10.71446 1.08732,-3.44616 2.27378,-6.7692 3.55467,-9.96987 1.2809,-3.20065 2.65462,-6.27939 4.11421,-9.24209 1.45949,-2.96273 3.00407,-5.81142 4.62734,-8.5438 1.6233,-2.73236 3.32644,-5.34847 5.09845,-7.85811 1.77203,-2.50966 3.61346,-4.91153 5.51923,-7.20605 2.69896,-2.66381 5.49228,-5.27595 8.38391,-7.81605 2.89165,-2.54005 5.88126,-5.00752 8.96867,-7.39115 3.08742,-2.38362 6.27564,-4.68346 9.56185,-6.87793 3.28614,-2.19452 6.67109,-4.28272 10.1591,-6.25535 3.48803,-1.97267 7.07635,-3.82631 10.76918,-5.54443 3.69282,-1.71813 7.491,-3.30165 11.39175,-4.73255 3.90073,-1.43088 7.90681,-2.70869 12.01845,-3.81965 4.11175,-1.11099 8.3281,-2.05594 12.65376,-2.81428 0.92437,-0.15119 1.84823,-0.30389 2.75962,-0.43748 3.57742,-0.55614 7.4648,-1.02284 11.57678,-1.35035 4.11206,-0.32749 8.44717,-0.51398 12.92296,-0.52163 4.47586,-0.009 9.09125,0.16433 13.76012,0.56787 2.33446,0.20183 4.68288,0.46084 7.03361,0.78247 2.35071,0.32162 4.70249,0.72043 7.05042,1.16104 26.71434,5.01367 41.02942,14.99871 50.8547,32.14334 29.40516,51.31089 6.4942,94.72678 -14.15127,119.58369 -21.59181,21.31064 -49.30166,39.18445 -83.90678,45.25138 -0.92436,0.1512 -1.84813,0.30388 -2.75954,0.43746 -10.12591,1.57423 -22.74742,2.37804 -35.90417,1.45132 v 34.35186 25.86274 c 0.13347,0.001 0.26619,0.004 0.3997,0.009 18.38885,0.43315 36.72816,-1.73302 55.08242,-0.52585 h 0.0172 c 8.66371,0.51079 17.27468,1.65253 25.77022,3.41581 32.79372,7.12568 56.27002,34.67196 64.31719,80.55405 1.88873,15.47661 6.1641,31.96133 -0.24911,46.65635 -29.6257,66.8377 -95.5932,77.39494 -116.35288,79.06061 -4.06705,0.32634 -7.99328,0.47082 -11.75352,0.47118 h -0.0172 -0.004 C 210.34114,715.60922 171.21644,696.64137 165.50445,613.91273 H 77.95474 c 0.18632,1.36328 0.31341,2.73266 0.52995,4.09314 0.52507,3.29367 1.16376,6.5786 1.90982,9.85628 0.7465,3.27764 1.59979,6.54807 2.56189,9.81421 0.22875,0.77775 0.39156,1.55765 0.63495,2.33471 0.41272,1.31743 0.96563,2.63024 1.4219,3.94586 0.80835,2.33129 1.5659,4.66533 2.51981,6.99155 l 0.004,0.004 c 1.46137,3.42334 3.05119,6.90162 4.76617,10.41158 1.71501,3.50994 3.55597,7.05266 5.52335,10.60928 1.96747,3.55661 4.05785,7.12586 6.27647,10.6892 2.21851,3.56333 4.56499,7.12127 7.03357,10.65134 2.46853,3.53008 5.06085,7.0304 7.77813,10.48728 2.71729,3.4569 5.55796,6.87012 8.52279,10.21386 2.96485,3.34374 6.05618,6.61938 9.26733,9.80999 3.21117,3.19066 6.54305,6.29503 9.99932,9.29261 l 0.004,0.004 c 3.50065,3.03586 7.13038,5.96598 10.89112,8.77097 1.17953,0.87979 2.45458,1.66125 3.65977,2.5156 2.85934,2.08934 5.78786,4.0781 8.77518,5.96088 2.98738,1.88278 6.03473,3.6604 9.13697,5.3341 3.10218,1.67367 6.25691,3.24102 9.46084,4.70306 3.20392,1.46205 6.45448,2.81999 9.74688,4.06787 3.2925,1.24789 6.62731,2.38464 9.99509,3.41584 3.36786,1.03122 6.77114,1.95603 10.20128,2.76801 3.43006,0.81198 6.88618,1.51312 10.36523,2.10336 3.47923,0.59022 6.98059,1.0685 10.49573,1.43445 h 0.004 c 2.6651,0.26394 5.36282,0.46694 8.09362,0.60157 2.7322,0.13481 5.49758,0.20181 8.29562,0.20181 h 0.004 0.0243 c 4.54198,-6.2e-4 9.02093,-0.14252 13.432,-0.41645 4.41107,-0.2738 8.75447,-0.67828 13.03227,-1.20312 4.27789,-0.52483 8.49041,-1.16877 12.63276,-1.92245 4.14228,-0.75371 8.216,-1.61831 12.22044,-2.57871 4.00437,-0.96042 7.93565,-2.01847 11.79974,-3.16344 3.86411,-1.14495 7.65765,-2.3777 11.37915,-3.68504 3.72147,-1.30738 7.37344,-2.6876 10.95002,-4.13521 3.5765,-1.44758 7.07909,-2.96073 10.50827,-4.52639 3.42924,-1.56567 6.78294,-3.18452 10.06239,-4.84611 3.27956,-1.66157 6.48486,-3.36738 9.61234,-5.10272 3.12747,-1.73533 6.18071,-3.50088 9.15377,-5.28781 2.97305,-1.78695 5.86625,-3.59341 8.68259,-5.4098 5.63271,-3.6328 10.9476,-7.30298 15.93916,-10.92058 4.99156,-3.61761 9.65987,-7.18409 13.99147,-10.60928 3.32905,-2.63238 6.68316,-5.403 10.02034,-8.30403 18.22247,-15.84035 51.78498,-42.38106 54.83006,-77.05819 0.68136,-7.76055 0.47134,-9.03414 -0.57471,-18.09335 -0.9718,-8.42091 -2.73568,-15.00211 -4.72773,-21.85066 -10.89744,-37.46537 -34.37394,-70.48316 -53.83172,-90.07644 l -0.004,-0.009 c -3.2652,-3.28775 -6.66792,-6.47656 -10.20966,-9.55341 -1.11085,-0.96501 -2.32378,-1.83906 -3.46214,-2.78063 -8.66745,-7.3819 -18.11567,-13.741 -28.11328,-19.0521 12.0341,-7.64732 22.7073,-15.49599 31.84885,-22.72456 24.65165,-19.493 50.49187,-46.43352 61.54391,-78.00891 10.74938,-30.71067 7.19696,-45.07357 -0.70252,-72.85994 -2.75179,-9.67954 -11.79552,-20.80524 -21.50887,-33.46844 -2.89562,-3.77515 -5.95789,-7.52998 -9.18314,-11.22347 -3.22534,-3.69349 -6.61371,-7.32516 -10.16335,-10.85747 l -0.004,-0.004 c -3.24054,-3.22429 -6.61249,-6.36604 -10.11288,-9.40195 l -0.004,-0.004 c -5.31882,-4.61377 -10.75924,-8.83329 -16.35882,-12.69578 -2.9921,-2.064 -6.1168,-4.08506 -9.37664,-6.04082 -3.25986,-1.95576 -6.65498,-3.84612 -10.18444,-5.6454 -3.52945,-1.79926 -7.19544,-3.50817 -10.99627,-5.10272 -3.80093,-1.59452 -7.73816,-3.07552 -11.81244,-4.41702 -4.07423,-1.34154 -8.28315,-2.54384 -12.63267,-3.58409 -4.34953,-1.04024 -8.8389,-1.91741 -13.46562,-2.60817 h -0.004 c -2.5994,-0.38796 -5.23097,-0.71612 -7.89598,-0.98016 h -0.004 c -2.6651,-0.26399 -5.36301,-0.46684 -8.09372,-0.60156 h -0.004 c -2.73217,-0.13481 -5.49759,-0.20204 -8.2956,-0.20204 z"
     sodipodi:nodetypes="ssssscssssssccsccsssccssssccscccccccscsscsscssssccssssccccccccccccsssscscccccscccsssssssccscsssssssccsscsssssssssssssssssssccsccsssssssccssssssccccccss"
     inkscape:label="glyph_l" />
</svg>
