<?xml version="1.0" encoding="UTF-8" standalone="no"?>
<svg
   width="543.66803"
   height="998.43866"
   viewBox="0 0 543.66802 998.43866"
   version="1.1"
   id="svg5"
   sodipodi:docname="m.svg"
   inkscape:version="1.3 (0e150ed6c4, 2023-07-21)"
   xmlns:inkscape="http://www.inkscape.org/namespaces/inkscape"
   xmlns:sodipodi="http://sodipodi.sourceforge.net/DTD/sodipodi-0.dtd"
   xmlns="http://www.w3.org/2000/svg"
   xmlns:svg="http://www.w3.org/2000/svg">
  <defs
     id="defs1" />
  <sodipodi:namedview
     id="namedview1"
     pagecolor="#ffffff"
     bordercolor="#000000"
     borderopacity="0.25"
     inkscape:showpageshadow="2"
     inkscape:pageopacity="0.0"
     inkscape:pagecheckerboard="0"
     inkscape:deskcolor="#d1d1d1"
     inkscape:zoom="0.817"
     inkscape:cx="272.33782"
     inkscape:cy="531.82375"
     inkscape:window-width="1920"
     inkscape:window-height="1094"
     inkscape:window-x="-11"
     inkscape:window-y="-11"
     inkscape:window-maximized="1"
     inkscape:current-layer="svg5" />
  <path
     id="rect33"
     style="fill:#ff0000;fill-opacity:0.533333;stroke:none;stroke-width:210.293"
     d="M 72.912082,76.096017 V 134.54795 H 335.02322 c -39.89065,31.66577 -86.1362,51.79288 -131.13293,74.43404 -10.95418,5.59951 -32.28123,17.89001 -32.28123,17.89001 -12.26252,7.73722 -23.07939,15.70429 -32.346,23.03178 -40.461661,31.99463 -75.940229,87.55824 -75.940229,137.32918 l -0.476856,72.31702 v 6.72337 h 0.472807 v 12.60998 h -0.472807 v 45.66205 37.6626 c 0,11.39473 0.0086,22.63931 0.652552,33.77164 0.426663,7.42108 1.132167,14.79239 2.301094,22.12398 1.044469,6.55157 2.533599,13.06673 4.447379,19.56346 0.227493,0.77351 0.385365,1.54917 0.627445,2.32201 0.41047,1.31026 0.960284,2.61595 1.414068,3.92441 0.803955,2.31858 1.557463,4.6399 2.50616,6.95347 l 0.0042,0.004 c 1.424757,3.33751 2.976222,6.74214 4.656599,10.18753 l 0.0042,0.004 c 1.680527,3.44551 3.485725,6.93159 5.422168,10.44278 l 0.0043,0.004 c 1.936594,3.51123 3.999101,7.04609 6.192019,10.58082 l 0.0043,0.004 c 2.19309,3.53479 4.51612,7.07311 6.966005,10.58919 l 0.0043,0.004 c 2.449966,3.51611 5.024466,7.01264 7.731656,10.46788 l 0.004,0.004 c 2.70728,3.45522 5.545,6.86886 8.5098,10.22104 l 0.004,0.004 c 2.96498,3.35214 6.05675,6.64178 9.27965,9.84868 l 0.004,0.004 c 3.22308,3.20686 6.57642,6.33139 10.05786,9.3508 l 0.004,0.004 c 3.48159,3.01937 7.09158,5.93352 10.83185,8.72323 1.17312,0.87502 2.44131,1.65224 3.63995,2.50192 2.62468,1.86066 5.22728,3.74727 7.9743,5.4766 h 0.004 c 4.00023,2.51819 8.13251,4.89167 12.39237,7.09574 h 0.004 c 4.25994,2.20396 8.64644,4.23975 13.16644,6.08743 h 0.004 c 4.52,1.84754 9.1685,3.50877 13.94887,4.95781 h 0.004 c 2.38956,0.72429 4.81258,1.3956 7.26727,2.01239 h 0.004 c 2.45474,0.61675 4.94392,1.1821 7.46394,1.68609 h 0.004 c 2.52002,0.50394 5.07121,0.94873 7.65639,1.33463 h 0.004 c 2.58527,0.38585 5.20243,0.71227 7.85295,0.97483 h 0.004 c 2.6506,0.26247 5.33374,0.46436 8.04966,0.59826 2.71732,0.13405 5.46769,0.20073 8.25049,0.20073 h 0.004 0.0241 c 72.27598,-0.0109 128.04278,-36.20737 162.50731,-63.45991 40.46183,-31.99458 75.94021,-87.55825 75.94021,-137.32918 l 0.47688,-72.31704 v -19.33337 -26.97715 -17.68914 -38.65835 c 0,-11.3947 -0.0172,-22.64004 -0.65256,-33.77165 -0.42667,-7.42107 -1.13225,-14.79235 -2.30109,-22.12396 -1.04456,-6.55156 -2.53369,-13.06672 -4.44738,-19.56345 -0.22832,-0.77473 -0.38942,-1.55211 -0.6315,-2.32622 -1.13824,-3.63045 -2.4367,-7.25607 -3.92023,-10.8737 l -0.004,-0.004 c -1.42468,-3.33746 -2.97633,-6.74223 -4.65659,-10.18756 l -0.004,-0.004 c -1.68044,-3.44542 -3.48589,-6.93167 -5.42224,-10.44278 l -0.004,-0.004 c -1.93651,-3.51116 -3.99916,-7.04617 -6.19202,-10.58083 l -0.004,-0.004 c -2.193,-3.53474 -4.51621,-7.07319 -6.96602,-10.58923 l -0.004,-0.004 c -2.44998,-3.51604 -5.02456,-7.01271 -7.73167,-10.46787 l -0.004,-0.004 c -2.70719,-3.45516 -5.54513,-6.86891 -8.50986,-10.22101 l -0.004,-0.004 c -2.96491,-3.35207 -6.05682,-6.64183 -9.27966,-9.84866 l -0.004,-0.004 c -3.22294,-3.20678 -6.57649,-6.33142 -10.05785,-9.3508 l -0.004,-0.004 c -3.48145,-3.01933 -7.0917,-5.93352 -10.83184,-8.72323 l -0.004,-0.004 c -3.74092,-2.7901 -7.60982,-5.45613 -11.61005,-7.97433 h -0.004 c -4.00022,-2.51812 -8.13258,-4.8917 -12.39246,-7.09573 h -0.004 c -4.25979,-2.20393 -8.64653,-4.23977 -13.16639,-6.08742 h -0.004 c -4.51992,-1.84757 -9.1685,-3.50872 -13.94878,-4.95782 h -0.004 c -0.19514,-0.0592 -0.39833,-0.10474 -0.59426,-0.16301 L 479.36818,118.42765 459.49092,76.095932 Z M 291.48233,246.04211 h 0.0172 0.004 c 3.16712,-0.03 6.22812,0.0214 9.20014,0.13796 0.8934,0.0356 1.72616,0.11483 2.60234,0.16323 2.06305,0.11374 4.12266,0.22944 6.09163,0.41419 0.96644,0.0906 1.8758,0.22719 2.8199,0.33471 1.75428,0.19964 3.50925,0.39591 5.18791,0.65269 1.11607,0.17073 2.17602,0.38612 3.2592,0.58158 1.42518,0.2572 2.85633,0.50827 4.22565,0.8075 1.08552,0.23721 2.12028,0.51087 3.17133,0.77397 1.30939,0.32782 2.62153,0.65361 3.87836,1.02087 1.01593,0.29697 1.99247,0.62745 2.97469,0.94971 1.18657,0.38919 2.36767,0.77951 3.50605,1.20495 0.96127,0.35931 1.88817,0.74499 2.81568,1.12963 1.10391,0.45766 2.19795,0.92131 3.25497,1.41412 0.88467,0.41259 1.74577,0.84772 2.59813,1.28443 0.98863,0.50625 1.96147,1.02255 2.90775,1.56055 0.85123,0.48424 1.68431,0.98011 2.50197,1.48943 0.89186,0.55533 1.76211,1.12661 2.6148,1.71118 0.79018,0.54188 1.57317,1.09034 2.3304,1.65681 0.80802,0.60419 1.58821,1.23022 2.35969,1.86179 0.72704,0.59568 1.45077,1.19212 2.14629,1.81157 0.71166,0.63368 1.39571,1.28754 2.07517,1.94546 0.7019,0.67993 1.40318,1.36161 2.07096,2.06682 0.61209,0.64646 1.19355,1.31599 1.77818,1.98311 0.65577,0.74842 1.31594,1.49387 1.93708,2.26761 0.52784,0.65709 1.02326,1.33757 1.52708,2.01244 0.62583,0.83913 1.25944,1.67362 1.84924,2.53955 0.40482,0.59449 0.77887,1.21316 1.16724,1.81996 0.63067,0.98615 1.26939,1.96537 1.85765,2.98303 0.23639,0.40902 0.44772,0.83701 0.67767,1.25097 2.05195,3.69836 3.7689,7.64212 5.32182,11.70628 0.67038,1.75128 1.29613,3.53487 1.88268,5.3469 0.64689,2.00141 1.26778,4.0217 1.81993,6.09161 0.46391,1.73719 0.88224,3.5066 1.28447,5.28834 0.50762,2.25329 1.00141,4.51806 1.41827,6.83635 0.29876,1.6599 0.55541,3.35125 0.81174,5.04147 0.38862,2.56821 0.76753,5.13865 1.06683,7.76932 0.15059,1.32048 0.26716,2.6652 0.39751,3.99974 0.30281,3.10755 0.59749,6.22329 0.80315,9.39679 0.0405,0.61776 0.0646,1.24602 0.10037,1.86601 0.7254,12.20234 0.84692,24.80557 0.8535,37.42829 6e-5,0.19706 0.004,0.39298 0.004,0.58988 h -0.43964 v 91.65041 h -0.004 v 90.67977 c 0,44.60711 -12.56468,75.96597 -30.73834,97.84659 -21.47432,21.19484 -49.03322,38.97123 -83.45014,45.00518 -0.91924,0.15038 -1.83816,0.30222 -2.7446,0.43508 -2.43663,0.37883 -4.92586,0.66649 -7.43051,0.92463 -1.53244,0.15381 -3.07878,0.32038 -4.55609,0.42675 -3.5407,0.25381 -7.11596,0.44317 -10.79006,0.44351 h -0.0172 -0.004 c -3.16705,0.0299 -6.22821,-0.0214 -9.20022,-0.13796 -0.8934,-0.0356 -1.7261,-0.11483 -2.60225,-0.16323 -2.06317,-0.11374 -4.12267,-0.22944 -6.09165,-0.4142 -0.96643,-0.0906 -1.87571,-0.22717 -2.81989,-0.33468 -1.75427,-0.19965 -3.50926,-0.3959 -5.18792,-0.65264 -1.11598,-0.17072 -2.17602,-0.38611 -3.2592,-0.58154 -1.42517,-0.25723 -2.85633,-0.50835 -4.22563,-0.80751 -1.08545,-0.23721 -2.1203,-0.51088 -3.17135,-0.77401 -1.30929,-0.32773 -2.62153,-0.65359 -3.87837,-1.02083 -1.01591,-0.29698 -1.99245,-0.62746 -2.9747,-0.94973 -1.18655,-0.38926 -2.36763,-0.7795 -3.50603,-1.20494 -0.96118,-0.35929 -1.88818,-0.74492 -2.81567,-1.12961 -1.10391,-0.4577 -2.19795,-0.92133 -3.255,-1.41414 -0.88458,-0.41257 -1.74568,-0.84774 -2.59811,-1.28443 -0.98863,-0.50625 -1.96155,-1.02254 -2.90774,-1.56054 -0.85132,-0.48425 -1.68432,-0.9801 -2.50197,-1.48945 -0.89186,-0.55531 -1.7622,-1.12657 -2.61489,-1.71116 -0.79018,-0.54189 -1.57307,-1.09036 -2.33031,-1.6568 -0.808,-0.60423 -1.58814,-1.23022 -2.3597,-1.86179 -0.72703,-0.59572 -1.45077,-1.19212 -2.14631,-1.81159 -0.71165,-0.63368 -1.39577,-1.28752 -2.07512,-1.94548 -0.70193,-0.6799 -1.40329,-1.36159 -2.07099,-2.06678 -0.61207,-0.64649 -1.19354,-1.31596 -1.77816,-1.98313 -0.65497,-0.74839 -1.31586,-1.49386 -1.93709,-2.26763 -0.52786,-0.6571 -1.02326,-1.33753 -1.52709,-2.0124 -0.62584,-0.83916 -1.25943,-1.67363 -1.84923,-2.53957 -0.40482,-0.5945 -0.77885,-1.21316 -1.16724,-1.81995 -0.63068,-0.98618 -1.26939,-1.96538 -1.85766,-2.98308 -0.2364,-0.409 -0.44772,-0.83699 -0.67765,-1.25094 -2.05205,-3.69835 -3.76882,-7.64209 -5.32183,-11.70628 -0.67037,-1.75125 -1.29612,-3.53486 -1.88268,-5.34689 -0.64689,-2.00137 -1.26778,-4.02167 -1.81993,-6.09163 -0.46392,-1.73716 -0.88216,-3.50659 -1.28447,-5.2883 -0.50762,-2.2533 -1.00148,-4.51805 -1.41827,-6.83635 -0.29876,-1.65991 -0.55541,-3.35129 -0.81173,-5.0415 -0.38862,-2.56819 -0.76752,-5.13865 -1.06683,-7.76931 -0.1506,-1.32044 -0.26717,-2.66521 -0.39752,-3.99972 -0.3028,-3.10759 -0.59749,-6.22332 -0.80314,-9.39683 -0.0405,-0.61773 -0.0647,-1.24602 -0.10045,-1.86596 -0.7254,-12.20235 -0.84686,-24.80559 -0.85342,-37.42832 -1.5e-4,-0.19708 -0.004,-0.39298 -0.004,-0.58988 h 0.44372 V 466.27341 h 0.004 v -75.14946 c 0,-44.60713 12.56475,-75.96599 30.73843,-97.8466 21.47441,-21.19486 49.03314,-38.97124 83.45012,-45.00519 0.91931,-0.15038 1.83816,-0.30223 2.74461,-0.43509 2.43669,-0.3788 4.92569,-0.66646 7.43041,-0.92462 1.53235,-0.15379 3.07897,-0.32036 4.55617,-0.42673 3.54079,-0.25383 7.11581,-0.4432 10.78998,-0.44351 z"
     sodipodi:nodetypes="cccscscccccccscscssccccccccccccccssccssccccccccccccccccsscsccccccscsscccccccccccccccssccccccccccccccccscscsssssssssssscccsccssssccscscccccccccccsccccscccccscscssssssssssssssssscssscccscscccccccccccsccccscccccss"
     inkscape:label="glyph_m" />
</svg>
