<?xml version="1.0" encoding="UTF-8" standalone="no"?>
<svg
   width="589.80438"
   height="1002.9911"
   viewBox="0 0 589.80436 1002.9911"
   version="1.1"
   id="svg5"
   sodipodi:docname="n.svg"
   inkscape:version="1.3 (0e150ed6c4, 2023-07-21)"
   xmlns:inkscape="http://www.inkscape.org/namespaces/inkscape"
   xmlns:sodipodi="http://sodipodi.sourceforge.net/DTD/sodipodi-0.dtd"
   xmlns="http://www.w3.org/2000/svg"
   xmlns:svg="http://www.w3.org/2000/svg">
  <defs
     id="defs1" />
  <sodipodi:namedview
     id="namedview1"
     pagecolor="#ffffff"
     bordercolor="#000000"
     borderopacity="0.25"
     inkscape:showpageshadow="2"
     inkscape:pageopacity="0.0"
     inkscape:pagecheckerboard="0"
     inkscape:deskcolor="#d1d1d1"
     inkscape:zoom="0.81456357"
     inkscape:cx="295.25013"
     inkscape:cy="501.49554"
     inkscape:window-width="1920"
     inkscape:window-height="1094"
     inkscape:window-x="-11"
     inkscape:window-y="-11"
     inkscape:window-maximized="1"
     inkscape:current-layer="svg5" />
  <path
     id="rect8"
     style="fill:#ff0000;fill-opacity:0.533333;stroke:none;stroke-width:122.318"
     d="m 70.910785,186.43893 v 584.81702 h 89.087285 v -279.2631 h 68.45566 c 2.572,36.73564 9.21923,75.90995 20.147,119.28868 19.9744,79.29031 56.60026,159.97442 122.9421,159.97442 87.53695,0 139.35685,-100.41762 163.97349,-189.53955 24.7195,-79.81679 19.13324,-160.07068 0.74614,-240.58736 -18.836,-75.1289 -58.73133,-154.69011 -143.22813,-154.69011 -74.77221,0 -116.23426,59.55526 -139.19115,123.02645 -14.0679,38.89506 -22.53732,77.11884 -25.45231,117.3123 H 159.9984 V 186.43893 Z m 308.693345,66.26024 c 12.35121,0.72787 25.06546,2.19476 36.76678,6.24509 56.47856,22.61503 65.49727,119.162 65.69136,176.53945 0.0325,31.05736 3.23081,114.69653 -14.93848,161.80747 -34.89924,90.4902 -78.6068,100.98944 -82.45866,101.7544 -0.23484,0.11419 -0.47786,0.17691 -0.73717,0.17691 -16.07538,0 -103.11547,-2.37871 -103.11547,-239.83729 0,-192.93508 71.84932,-207.86876 98.79197,-206.68609 z"
     inkscape:label="glyph_n" />
</svg>
