<?xml version="1.0" encoding="UTF-8" standalone="no"?>
<svg
   width="527.81085"
   height="1004.7793"
   viewBox="0 0 527.81084 1004.7793"
   version="1.1"
   id="svg5"
   sodipodi:docname="o.svg"
   inkscape:version="1.3 (0e150ed6c4, 2023-07-21)"
   xmlns:inkscape="http://www.inkscape.org/namespaces/inkscape"
   xmlns:sodipodi="http://sodipodi.sourceforge.net/DTD/sodipodi-0.dtd"
   xmlns="http://www.w3.org/2000/svg"
   xmlns:svg="http://www.w3.org/2000/svg">
  <defs
     id="defs1" />
  <sodipodi:namedview
     id="namedview1"
     pagecolor="#ffffff"
     bordercolor="#000000"
     borderopacity="0.25"
     inkscape:showpageshadow="2"
     inkscape:pageopacity="0.0"
     inkscape:pagecheckerboard="0"
     inkscape:deskcolor="#d1d1d1"
     inkscape:zoom="0.817"
     inkscape:cx="246.63403"
     inkscape:cy="501.22399"
     inkscape:window-width="1920"
     inkscape:window-height="1094"
     inkscape:window-x="-11"
     inkscape:window-y="-11"
     inkscape:window-maximized="1"
     inkscape:current-layer="svg5" />
  <path
     id="path26"
     style="fill:#ff0000;fill-opacity:0.533333;stroke:none;stroke-width:111.54"
     inkscape:label="glyph_o"
     d="m 294.36673,184.6301 c -72.92658,0.0109 -129.19534,36.53335 -163.9703,64.03124 -35.867727,28.36203 -67.834325,75.07931 -75.074621,120.06278 h 88.823931 v 1.2749 c 3.34352,-33.94574 14.5882,-59.15302 29.888,-77.57372 21.66772,-21.38563 49.47472,-39.32208 84.20139,-45.41033 0.9276,-0.15173 1.85471,-0.30495 2.7693,-0.43899 28.72,-4.46494 77.34849,-3.05193 102.01557,27.67582 25.6476,52.38533 29.54691,121.59662 31.25083,180.63239 H 224.61005 v 57.63149 h 169.65652 c 0.48687,53.60514 -6.62093,112.94686 -39.66062,157.41013 -38.94361,38.43675 -79.76478,47.65773 -109.95243,47.66038 h -0.0173 -0.005 C 188.58209,718.11635 149.32764,699.09744 143.59461,616.06848 H 55.737964 c 0.18696,1.36804 0.314503,2.74222 0.531788,4.10749 1.053896,6.61054 2.556431,13.18436 4.487418,19.73958 0.229562,0.78047 0.392941,1.56312 0.6372,2.34293 0.414166,1.32204 0.96893,2.63947 1.4268,3.95973 0.811191,2.33947 1.57148,4.68168 2.528721,7.01607 l 0.0048,0.005 c 11.732214,27.48301 31.627825,58.38881 59.374939,82.45372 l 0.005,0.005 c 3.51293,3.0465 7.15542,5.98693 10.92936,8.80174 1.18369,0.88289 2.46329,1.66711 3.67274,2.52446 22.9549,16.7736 50.23175,26.95415 78.45177,29.89222 h 0.005 c 2.67448,0.26483 5.38177,0.46854 8.12215,0.60365 2.74177,0.13529 5.51687,0.20252 8.32474,0.20252 h 0.005 0.0243 c 72.92658,-0.0108 129.19543,-36.53355 163.9703,-64.03124 26.72591,-21.13305 54.94008,-51.1698 65.08143,-85.66173 16.38891,-55.7406 21.77492,-197.72723 9.04338,-285.85284 -1.05397,-6.61053 -2.5565,-13.18437 -4.48741,-19.73958 -0.23038,-0.7817 -0.39294,-1.56608 -0.63718,-2.34715 -6.52755,-20.82003 -24.68308,-55.63269 -53.18209,-83.99032 l -0.005,-0.005 c -3.25195,-3.23567 -6.63572,-6.38842 -10.14843,-9.43499 l -0.005,-0.005 C 384.1301,209.50945 355.91758,191.96529 318.77361,186.41991 h -0.005 c -2.60854,-0.38934 -5.24935,-0.71863 -7.92373,-0.98359 h -0.005 c -2.67447,-0.26492 -5.38179,-0.46849 -8.12209,-0.60369 h -0.005 c -2.74179,-0.13509 -5.51689,-0.20254 -8.32475,-0.20254 z"
     sodipodi:nodetypes="ssccccccscccccscscccsssccsssssssscssssscssccccccssss" />
</svg>
