<?xml version="1.0" encoding="UTF-8" standalone="no"?>
<svg
   width="482.59061"
   height="1006.0939"
   viewBox="0 0 482.5906 1006.0939"
   version="1.1"
   id="svg5"
   sodipodi:docname="s.svg"
   inkscape:version="1.3 (0e150ed6c4, 2023-07-21)"
   xmlns:inkscape="http://www.inkscape.org/namespaces/inkscape"
   xmlns:sodipodi="http://sodipodi.sourceforge.net/DTD/sodipodi-0.dtd"
   xmlns="http://www.w3.org/2000/svg"
   xmlns:svg="http://www.w3.org/2000/svg">
  <defs
     id="defs1" />
  <sodipodi:namedview
     id="namedview1"
     pagecolor="#ffffff"
     bordercolor="#000000"
     borderopacity="0.25"
     inkscape:showpageshadow="2"
     inkscape:pageopacity="0.0"
     inkscape:pagecheckerboard="0"
     inkscape:deskcolor="#d1d1d1"
     inkscape:zoom="0.817"
     inkscape:cx="235.61812"
     inkscape:cy="772.94982"
     inkscape:window-width="1920"
     inkscape:window-height="1094"
     inkscape:window-x="-11"
     inkscape:window-y="-11"
     inkscape:window-maximized="1"
     inkscape:current-layer="svg5" />
  <g
     id="g21"
     inkscape:label="glyph_s"
     transform="matrix(8.1797278,0,0,8.1797278,310.38621,833.11131)">
    <path
       id="rect1-2"
       style="fill:#ff0000;fill-opacity:0.533333;stroke:#66ccff;stroke-width:0;stroke-dasharray:none"
       d="M -29.587341,-77.887028 V -6.90715 c 22.8058871,0.2321718 28.60913236,-0.3086091 35.6671389,-8.517497 7.4698691,-8.68791 9.8488081,-21.940692 9.8488081,-28.058295 0,-28.401939 -18.8622634,-34.188398 -45.515947,-34.404086 z m 11.678383,8.941105 c 0,0 6.907382,-0.758811 13.0922246,2.570252 12.1411614,6.535122 11.5483417,14.74046 11.2083835,25.530028 -0.410001,13.012584 -11.2916835,21.890407 -23.9827651,23.73078 0,-17.981955 -0.317843,-31.864019 -0.317843,-51.83106 z"
       sodipodi:nodetypes="ccssccsscc" />
    <path
       id="path3"
       style="fill:#ff0000;fill-opacity:0.533333;stroke:#66ccff;stroke-width:0;stroke-dasharray:none"
       d="m -34.618557,-7.9194133 c 0.594175,3.3409523 3.952932,6.2940008 8.96121,8.3002686 4.252447,1.7034892 9.687122,2.7253775 15.608867,2.725415 C -2.9816261,3.1062981 3.3911392,1.6511196 7.8894411,-0.68109538 11.600336,-2.6050663 14.030401,-5.1266518 14.526764,-7.9194133 h -2.073776 c -3.8789623,4.2636739 -12.58331696,7.15777845 -22.501468,7.16442062 -9.913475,-0.007414 -18.616692,-2.90046652 -22.496302,-7.16442062 z" />
  </g>
</svg>
