<?xml version="1.0" encoding="UTF-8" standalone="no"?>
<svg
   width="543.66803"
   height="998.43866"
   viewBox="0 0 543.66802 998.43866"
   version="1.1"
   id="svg5"
   sodipodi:docname="U+003F.svg"
   inkscape:version="1.3 (0e150ed6c4, 2023-07-21)"
   xmlns:inkscape="http://www.inkscape.org/namespaces/inkscape"
   xmlns:sodipodi="http://sodipodi.sourceforge.net/DTD/sodipodi-0.dtd"
   xmlns="http://www.w3.org/2000/svg"
   xmlns:svg="http://www.w3.org/2000/svg">
  <defs
     id="defs1" />
  <sodipodi:namedview
     id="namedview1"
     pagecolor="#ffffff"
     bordercolor="#000000"
     borderopacity="0.25"
     inkscape:showpageshadow="2"
     inkscape:pageopacity="0.0"
     inkscape:pagecheckerboard="0"
     inkscape:deskcolor="#d1d1d1"
     inkscape:zoom="0.4085"
     inkscape:cx="390.45288"
     inkscape:cy="380.66095"
     inkscape:window-width="1920"
     inkscape:window-height="1009"
     inkscape:window-x="-8"
     inkscape:window-y="-8"
     inkscape:window-maximized="1"
     inkscape:current-layer="svg5" />
  <path
     id="rect33"
     style="fill:#ff0000;fill-opacity:0.533333;stroke:none;stroke-width:210.293"
     inkscape:label="glyph_m"
     d="M 112.91211,148.36067 V 206.8138 H 315.02344 C 150.82643,400.84137 53.991682,506.86348 70.875,712.25325 c 24.232883,69.20396 86.72853,131.05095 163.04998,134.05357 43.65204,1.57453 145.91636,13.24222 186.95704,-14.49078 51.41715,-34.74484 43.42293,-95.3416 51.5958,-142.3686 -27.46657,-5.86356 -54.93313,-11.72711 -82.3997,-17.59067 -4.52286,38.28591 3.55012,85.50519 -30.97302,103.99198 -40.48316,24.64665 -124.99497,20.18844 -167.62084,-2.85917 -38.63954,-24.53242 -39.54723,-76.26895 -40.11823,-117.22235 19.74434,-94.86974 71.08433,-329.85677 308.00298,-465.0745 -6.6263,-14.11068 -13.25261,-28.22135 -19.87891,-42.33203 z"
     sodipodi:nodetypes="cccccscccccccc" />
</svg>
