<?xml version="1.0" encoding="UTF-8" standalone="no"?>
<svg
   width="550.6925"
   height="1008.1968"
   viewBox="0 0 550.69249 1008.1968"
   version="1.1"
   id="svg5"
   sodipodi:docname="u.svg"
   inkscape:version="1.3 (0e150ed6c4, 2023-07-21)"
   xmlns:inkscape="http://www.inkscape.org/namespaces/inkscape"
   xmlns:sodipodi="http://sodipodi.sourceforge.net/DTD/sodipodi-0.dtd"
   xmlns="http://www.w3.org/2000/svg"
   xmlns:svg="http://www.w3.org/2000/svg">
  <defs
     id="defs1" />
  <sodipodi:namedview
     id="namedview1"
     pagecolor="#ffffff"
     bordercolor="#000000"
     borderopacity="0.25"
     inkscape:showpageshadow="2"
     inkscape:pageopacity="0.0"
     inkscape:pagecheckerboard="0"
     inkscape:deskcolor="#d1d1d1"
     inkscape:zoom="0.817"
     inkscape:cx="278.45777"
     inkscape:cy="276.00979"
     inkscape:window-width="1920"
     inkscape:window-height="1094"
     inkscape:window-x="-11"
     inkscape:window-y="-11"
     inkscape:window-maximized="1"
     inkscape:current-layer="svg5" />
  <path
     id="path31"
     style="fill:#ff0000;fill-opacity:0.533333;stroke:none;stroke-width:111.92"
     inkscape:label="glyph_u"
     d="m 310.41422,185.25807 c -73.17453,0.0105 -129.63475,36.65762 -164.52799,64.24902 -35.98965,28.45846 -68.064973,75.33471 -75.329895,120.47114 h 89.126055 v 1.27923 c 3.35487,-34.06116 14.6378,-59.35424 29.98964,-77.83757 21.74135,-21.45835 49.64302,-39.45583 84.48781,-45.56477 0.93073,-0.15225 1.86099,-0.30599 2.77872,-0.4405 28.81757,-4.4801 77.61204,-3.06216 102.36293,27.77007 25.73484,52.56346 35.69973,121.98565 35.69537,181.24681 l -0.004,57.82751 c -4.84432,37.31204 -8.98938,75.32013 -19.81469,111.52005 -5.86785,16.54145 -13.77574,32.23837 -24.31785,46.42545 -39.07599,38.56746 -80.03609,47.81983 -110.32632,47.82251 h -0.0174 -0.004 C 204.27288,720.55899 164.88498,701.47513 159.13245,618.16385 H 70.976417 c 0.187597,1.37271 0.315574,2.75154 0.53362,4.12145 1.057457,6.63303 2.565103,13.22924 4.50268,19.80672 0.23032,0.78315 0.394256,1.56844 0.639345,2.35089 0.415575,1.32654 0.972313,2.64846 1.431739,3.97322 0.813952,2.3474 1.576743,4.6976 2.537256,7.03993 l 0.0044,0.004 c 11.772049,27.57644 31.735393,58.58743 59.576903,82.73417 l 0.004,0.004 c 3.52488,3.05689 7.17984,6.00732 10.96662,8.83171 1.18771,0.88589 2.47158,1.67277 3.68513,2.53304 23.03298,16.83063 50.40262,27.04582 78.71862,29.99388 h 0.004 c 2.68356,0.26574 5.39997,0.47015 8.14968,0.60572 2.75112,0.13575 5.53565,0.20321 8.35307,0.20321 h 0.004 0.0245 c 73.17452,-0.0105 129.63485,-36.65786 164.52798,-64.24903 26.81681,-21.20492 55.12792,-51.34418 65.30379,-85.9534 16.44456,-55.93013 21.8479,-198.39953 9.07307,-286.8248 -1.05756,-6.63301 -2.56519,-13.22922 -4.50268,-19.80672 -0.23115,-0.78434 -0.39427,-1.5714 -0.63934,-2.35513 -6.54976,-20.89082 -24.76705,-55.82193 -53.36291,-84.276 l -0.004,-0.004 c -3.26301,-3.24668 -6.65829,-6.41017 -10.18293,-9.46709 l -0.004,-0.004 C 400.48466,210.22205 372.1761,192.61816 334.90588,187.05395 h -0.004 c -2.61742,-0.39066 -5.26719,-0.72107 -7.9506,-0.98696 h -0.004 c -2.68356,-0.26583 -5.40014,-0.47008 -8.14979,-0.60573 h -0.004 c -2.75112,-0.13554 -5.53565,-0.2032 -8.35307,-0.2032 z"
     sodipodi:nodetypes="sscccccccssscscscccsssccssscsssscssscscssssccssssss" />
</svg>
