<?xml version="1.0" encoding="UTF-8" standalone="no"?>
<svg
   width="523.17389"
   height="1000"
   viewBox="0 0 523.17388 1000"
   version="1.1"
   id="svg5"
   sodipodi:docname="w.svg"
   inkscape:version="1.3 (0e150ed6c4, 2023-07-21)"
   xmlns:inkscape="http://www.inkscape.org/namespaces/inkscape"
   xmlns:sodipodi="http://sodipodi.sourceforge.net/DTD/sodipodi-0.dtd"
   xmlns="http://www.w3.org/2000/svg"
   xmlns:svg="http://www.w3.org/2000/svg">
  <defs
     id="defs1" />
  <sodipodi:namedview
     id="namedview1"
     pagecolor="#ffffff"
     bordercolor="#000000"
     borderopacity="0.25"
     inkscape:showpageshadow="2"
     inkscape:pageopacity="0.0"
     inkscape:pagecheckerboard="0"
     inkscape:deskcolor="#d1d1d1"
     inkscape:zoom="0.817"
     inkscape:cx="260.09792"
     inkscape:cy="315.17748"
     inkscape:window-width="1920"
     inkscape:window-height="1094"
     inkscape:window-x="-11"
     inkscape:window-y="-11"
     inkscape:window-maximized="1"
     inkscape:current-layer="svg5" />
  <path
     id="path23"
     style="fill:#ff0000;fill-opacity:0.533333;stroke:none;stroke-width:110.56"
     inkscape:label="glyph_w"
     d="m 285.69671,183.00795 c -72.28602,0.011 -128.06025,36.2123 -162.52965,63.46867 -40.467237,31.99899 -75.950686,87.57021 -75.950686,137.34805 l -0.476932,72.32701 v 6.72429 h 0.47287 v 12.61172 h -0.47287 v 45.66831 37.66779 c 0,11.3963 0.0078,22.64242 0.652654,33.77631 0.426725,7.42208 1.132313,14.79438 2.30141,22.12701 1.044614,6.55247 2.533939,13.06849 4.44798,19.56614 0.227528,0.77363 0.389469,1.54938 0.63158,2.32232 0.410526,1.31045 0.960415,2.6163 1.414265,3.92495 0.804073,2.3189 1.557688,4.64055 2.5065,6.95445 6.74e-4,0.002 0.0047,0.002 0.0047,0.005 1.424943,3.338 2.976626,6.74308 4.657211,10.18898 8.16e-4,0.002 0.0047,0.002 0.0047,0.005 1.680758,3.44596 3.486217,6.93255 5.422916,10.44421 9.72e-4,0.002 0.0047,0.002 0.0047,0.005 1.936855,3.51173 3.99965,7.04705 6.19287,10.58228 10e-4,0.002 0.0016,0.002 0.0047,0.005 2.193375,3.53528 4.51672,7.07408 6.966961,10.59067 0.0011,0.002 0.0016,0.002 0.0047,0.005 2.45032,3.51659 5.025152,7.0136 7.732729,10.46933 0.0012,0.002 0.0016,0.002 0.0047,0.005 2.707656,3.45569 5.545735,6.86978 8.510978,10.22242 0.0014,10e-4 0.0016,0.002 0.0047,0.005 2.965384,3.35259 6.057584,6.64266 9.280934,9.85001 l 0.005,0.005 c 3.22351,3.20729 6.57732,6.33223 10.05922,9.35208 0.001,10e-4 0.002,0.002 0.005,0.005 3.48206,3.01977 7.09256,5.93432 10.83334,8.72444 1.17328,0.87513 2.44164,1.65244 3.64045,2.50226 2.62504,1.86091 5.22801,3.74778 7.97539,5.47735 9.9e-4,6.2e-4 0.005,-6.2e-4 0.005,0 4.0008,2.5185 8.13363,4.89232 12.39408,7.0967 0.001,5.7e-4 0.002,-5.4e-4 0.005,0 4.26053,2.20426 8.64765,4.24035 13.16825,6.08826 0.001,5e-4 0.002,-4.7e-4 0.005,0 4.52061,1.84782 9.16976,3.50923 13.95079,4.95851 0.001,3.8e-4 0.002,-3.9e-4 0.005,0 2.38991,0.72436 4.81325,1.3958 7.26828,2.01268 0.001,3.1e-4 0.002,-3.3e-4 0.005,0 2.45509,0.61681 4.94461,1.18224 7.46495,1.68629 0.001,2.9e-4 0.002,-2.6e-4 0.005,0 2.52036,0.50402 5.07188,0.94887 7.65743,1.33484 0.001,1.9e-4 0.002,-2.2e-4 0.005,0 2.58564,0.38589 5.20315,0.71236 7.85412,0.97493 10e-4,1.7e-4 0.002,-1.3e-4 0.005,0 2.65097,0.26255 5.33448,0.46447 8.05077,0.59839 2.7177,0.13406 5.46842,0.20073 8.25162,0.20073 h 0.005 0.0241 c 72.28602,-0.011 128.06033,-36.2123 162.52965,-63.46866 40.46741,-31.99899 75.95068,-87.57024 75.95068,-137.34806 l 0.47693,-72.327 v -19.33954 -26.98088 -17.69156 -38.66368 c 0,-11.39628 -0.0171,-22.64315 -0.65265,-33.77629 -0.42672,-7.42212 -1.13238,-14.7944 -2.30138,-22.127 -1.04473,-6.55248 -2.53406,-13.06853 -4.44799,-19.56617 -0.22837,-0.77483 -0.38949,-1.55234 -0.63159,-2.32651 -1.1384,-3.63098 -2.43705,-7.25708 -3.92078,-10.8752 -7.3e-4,-0.002 -0.005,-0.002 -0.005,-0.005 -1.42486,-3.33795 -2.97672,-6.74317 -4.65721,-10.18897 -8.2e-4,-0.002 -0.005,-0.002 -0.005,-0.005 -1.68067,-3.44587 -3.48636,-6.93263 -5.42298,-10.44421 -9e-4,-0.002 -0.005,-0.002 -0.005,-0.005 -1.93676,-3.51165 -3.99972,-7.04713 -6.19287,-10.58229 -9.5e-4,-0.002 -0.002,-0.002 -0.005,-0.005 -2.19331,-3.53517 -4.51683,-7.07413 -6.96697,-10.59066 -0.001,-0.002 -0.002,-0.002 -0.005,-0.005 -2.45032,-3.51653 -5.02532,-7.01367 -7.73281,-10.46933 -10e-4,-0.002 -0.002,-0.002 -0.005,-0.005 -2.70757,-3.45562 -5.54591,-6.86987 -8.51104,-10.22244 -0.001,-0.001 -0.002,-0.002 -0.005,-0.005 -2.96531,-3.35253 -6.05765,-6.64273 -9.28093,-9.85004 l -0.005,-0.005 c -3.22337,-3.20724 -6.57741,-6.33229 -10.05923,-9.35207 -10e-4,-0.001 -0.002,-0.002 -0.005,-0.005 -3.48192,-3.01973 -7.09267,-5.93435 -10.83335,-8.72444 -0.002,-0.001 -0.002,-0.002 -0.005,-0.005 -3.74141,-2.79049 -7.61086,-5.45686 -11.61164,-7.97544 -9.6e-4,-6.4e-4 -0.002,6.5e-4 -0.005,0 -4.00077,-2.51847 -8.13368,-4.89235 -12.39416,-7.0967 -10e-4,-5.7e-4 -0.002,5.7e-4 -0.005,0 -4.26036,-2.20425 -8.64771,-4.24036 -13.16818,-6.08828 -10e-4,-4.9e-4 -0.002,4.9e-4 -0.005,0 -4.52053,-1.84781 -9.16974,-3.50918 -13.95069,-4.95848 -10e-4,-3.9e-4 -0.002,3.8e-4 -0.005,0 -2.38983,-0.72439 -4.81328,-1.39578 -7.26829,-2.01268 -0.001,-3.4e-4 -0.002,3.1e-4 -0.005,0 -2.45499,-0.61685 -4.94457,-1.18222 -7.46485,-1.68631 -10e-4,-2.9e-4 -0.002,2.7e-4 -0.005,0 -2.52028,-0.50406 -5.07188,-0.94883 -7.65742,-1.33481 -10e-4,-2.1e-4 -0.002,2e-4 -0.005,0 -2.58564,-0.38592 -5.20325,-0.71232 -7.85413,-0.97497 -0.001,-1.2e-4 -0.002,1.3e-4 -0.005,0 -2.65096,-0.26261 -5.3345,-0.46438 -8.05072,-0.59837 -10e-4,-8e-5 -0.002,6e-5 -0.005,0 -2.71768,-0.13407 -5.4684,-0.20075 -8.2516,-0.20075 z m -10.28936,59.60647 h 0.0171 c 0.001,0 0.002,3e-5 0.005,0 3.16756,-0.03 6.22896,0.0215 9.2015,0.13798 0.89352,0.0356 1.7264,0.11478 2.60269,0.16324 2.06334,0.11384 4.12319,0.22947 6.09247,0.41426 0.96656,0.0907 1.87598,0.2272 2.8202,0.33473 1.75452,0.19967 3.50975,0.39596 5.18863,0.65281 1.11621,0.17075 2.1763,0.38618 3.25965,0.58162 1.42537,0.25726 2.85671,0.50826 4.22621,0.80756 1.08568,0.23724 2.12059,0.51093 3.17176,0.77409 1.30959,0.32785 2.62192,0.65369 3.87893,1.02099 1.01603,0.297 1.99274,0.62753 2.97509,0.94984 1.18674,0.38924 2.36797,0.7796 3.50654,1.20511 0.96137,0.35934 1.88843,0.74511 2.81604,1.12978 1.10408,0.45773 2.19827,0.92143 3.25544,1.41433 0.88479,0.41265 1.74601,0.84784 2.59849,1.28459 0.98876,0.50631 1.96183,1.02268 2.90823,1.56077 0.85135,0.48431 1.68446,0.98025 2.50222,1.48966 0.89198,0.55538 1.76235,1.12673 2.61525,1.71138 0.79029,0.54198 1.57339,1.0905 2.33071,1.65702 0.8081,0.60432 1.58837,1.23041 2.35995,1.86205 0.72713,0.59582 1.45094,1.1923 2.14658,1.81185 0.71176,0.63378 1.39598,1.2877 2.0755,1.94573 0.70204,0.68 1.40341,1.36181 2.07129,2.06708 0.61214,0.64658 1.19362,1.31616 1.77832,1.98339 0.65588,0.74852 1.31612,1.4941 1.93736,2.26795 0.52792,0.65716 1.0234,1.33772 1.5273,2.01269 0.62592,0.83929 1.2596,1.67385 1.84949,2.53993 0.40486,0.59457 0.77895,1.21331 1.16745,1.82019 0.63079,0.9863 1.26951,1.96562 1.85786,2.98345 0.23644,0.40908 0.44778,0.83714 0.67774,1.25115 2.05226,3.69884 3.76935,7.64313 5.32248,11.70787 0.67046,1.75151 1.29639,3.53536 1.88302,5.34765 0.64699,2.00164 1.26795,4.02222 1.82018,6.09246 0.46398,1.73742 0.88228,3.50706 1.28456,5.28906 0.5077,2.25358 1.00164,4.51864 1.41857,6.83726 0.29878,1.66015 0.55546,3.35174 0.81175,5.04219 0.38866,2.56854 0.76761,5.13936 1.06697,7.77038 0.15053,1.32064 0.2672,2.66558 0.39756,4.00027 0.30286,3.10801 0.59759,6.22417 0.80326,9.39812 0.0404,0.61783 0.0647,1.2462 0.10053,1.86622 0.7255,12.20404 0.84707,24.809 0.85362,37.43346 6e-5,0.1969 0.005,0.39305 0.005,0.58997 h -0.43969 v 91.663 h -0.005 v 90.69225 c 0,44.61329 -12.56641,75.9764 -30.74266,97.86008 -21.47728,21.19777 -49.03988,38.97659 -83.46163,45.01135 -0.91936,0.15037 -1.83838,0.30227 -2.74496,0.43515 -2.43697,0.37888 -4.92645,0.66657 -7.43145,0.92477 -1.53264,0.15382 -3.0793,0.3204 -4.5568,0.42679 -3.54117,0.25385 -7.11685,0.44327 -10.79147,0.44358 h -0.0171 -0.005 c -3.16749,0.03 -6.229,-0.0215 -9.20141,-0.13798 -0.89354,-0.0356 -1.72643,-0.11478 -2.60272,-0.16326 -2.06341,-0.11383 -4.12321,-0.22948 -6.09246,-0.41425 -0.96656,-0.0906 -1.87597,-0.22722 -2.82028,-0.33475 -1.75452,-0.19967 -3.50977,-0.39597 -5.18864,-0.65272 -1.11612,-0.17076 -2.17631,-0.38615 -3.25963,-0.58163 -1.42537,-0.25724 -2.85673,-0.50835 -4.22623,-0.80753 -1.08558,-0.23726 -2.12059,-0.51094 -3.17178,-0.7741 -1.30947,-0.32778 -2.62188,-0.6537 -3.8789,-1.021 -1.01606,-0.297 -1.99274,-0.62754 -2.97512,-0.94986 -1.18672,-0.38931 -2.36795,-0.7796 -3.5065,-1.2051 -0.96133,-0.35934 -1.88844,-0.74502 -2.81607,-1.12977 -1.10405,-0.45773 -2.19825,-0.92142 -3.25544,-1.41431 -0.8847,-0.41265 -1.74592,-0.84786 -2.59848,-1.28459 -0.98877,-0.50635 -1.96182,-1.02271 -2.90813,-1.5608 -0.85143,-0.48429 -1.68456,-0.98024 -2.50231,-1.48962 -0.89199,-0.55541 -1.76236,-1.12677 -2.61516,-1.71143 -0.7903,-0.54194 -1.57339,-1.09048 -2.33072,-1.65701 -0.80812,-0.60429 -1.58836,-1.23041 -2.36002,-1.86206 -0.72714,-0.5958 -1.45098,-1.19228 -2.14661,-1.81182 -0.71175,-0.63379 -1.39597,-1.28769 -2.07541,-1.94573 -0.70201,-0.68001 -1.40349,-1.3618 -2.07128,-2.06709 -0.61214,-0.64659 -1.1937,-1.31614 -1.77839,-1.9834 -0.65507,-0.74852 -1.31605,-1.49407 -1.93736,-2.26793 -0.52794,-0.65718 -1.0234,-1.33773 -1.5273,-2.0127 -0.62592,-0.83925 -1.25963,-1.67386 -1.84949,-2.53989 -0.40488,-0.59461 -0.77895,-1.21333 -1.1674,-1.82021 -0.63077,-0.98632 -1.26956,-1.96567 -1.85791,-2.98347 -0.23644,-0.40906 -0.44778,-0.83712 -0.67776,-1.25115 -2.05232,-3.69885 -3.76936,-7.64314 -5.32255,-11.70788 -0.67046,-1.75149 -1.2963,-3.53535 -1.88296,-5.34763 -0.64696,-2.00168 -1.26794,-4.02222 -1.82018,-6.09245 -0.46397,-1.73743 -0.88227,-3.50707 -1.28463,-5.28906 -0.50769,-2.25361 -1.00164,-4.51867 -1.41848,-6.83727 -0.29878,-1.66016 -0.55547,-3.35174 -0.81182,-5.0422 -0.38869,-2.56854 -0.76763,-5.13935 -1.06699,-7.77038 -0.15053,-1.32064 -0.2672,-2.66556 -0.39756,-4.00028 -0.30286,-3.10799 -0.59759,-6.22415 -0.80326,-9.39812 -0.0405,-0.61779 -0.0647,-1.24619 -0.1005,-1.86622 -0.7255,-12.20402 -0.84707,-24.809 -0.85362,-37.43344 -1.4e-4,-0.19711 -0.005,-0.39304 -0.005,-0.58998 h 0.43969 V 462.87603 h 0.005 v -75.15982 c 0,-44.61329 12.56638,-75.97642 30.74257,-97.86006 21.47736,-21.19778 49.03988,-38.9766 83.46162,-45.01138 0.91945,-0.15037 1.83839,-0.30227 2.74498,-0.43515 2.43701,-0.37885 4.92645,-0.66656 7.43148,-0.92475 1.53261,-0.15381 3.07933,-0.32041 4.55676,-0.4268 3.54125,-0.25385 7.11686,-0.44324 10.79155,-0.44356 z" />
</svg>
