<?xml version="1.0" encoding="UTF-8" standalone="no"?>
<svg
   width="590.21155"
   height="1000.4485"
   viewBox="0 0 590.21154 1000.4485"
   version="1.1"
   id="svg5"
   sodipodi:docname="x.svg"
   inkscape:version="1.3 (0e150ed6c4, 2023-07-21)"
   xmlns:inkscape="http://www.inkscape.org/namespaces/inkscape"
   xmlns:sodipodi="http://sodipodi.sourceforge.net/DTD/sodipodi-0.dtd"
   xmlns="http://www.w3.org/2000/svg"
   xmlns:svg="http://www.w3.org/2000/svg">
  <defs
     id="defs1" />
  <sodipodi:namedview
     id="namedview1"
     pagecolor="#ffffff"
     bordercolor="#000000"
     borderopacity="0.25"
     inkscape:showpageshadow="2"
     inkscape:pageopacity="0.0"
     inkscape:pagecheckerboard="0"
     inkscape:deskcolor="#d1d1d1"
     inkscape:zoom="0.817"
     inkscape:cx="245.41004"
     inkscape:cy="779.06977"
     inkscape:window-width="1920"
     inkscape:window-height="1094"
     inkscape:window-x="-11"
     inkscape:window-y="-11"
     inkscape:window-maximized="1"
     inkscape:current-layer="svg5" />
  <path
     id="path15"
     style="fill:#ff0000;fill-opacity:0.533333;stroke:none;stroke-width:111.059"
     d="M 85.330097,183.83428 V 770.27069 H 174.19145 V 328.9943 c 26.92086,-40.42502 72.13168,-84.89096 140.3767,-85.28441 104.69583,-0.60361 101.66036,79.4724 101.66036,155.03773 v 299.51679 47.40452 c 0,22.47562 -4.37732,49.56386 -12.06744,73.75629 -14.49075,51.6818 -55.01268,67.39749 -102.49632,81.47829 -28.07408,7.96155 -57.90044,12.30511 -88.71911,12.29525 -45.51519,-0.015 -88.86703,-9.42591 -127.615543,-26.15277 v 83.40554 c 38.590463,16.5834 81.865683,25.92946 127.615543,25.92999 44.38876,3e-4 86.42861,-8.82183 124.13947,-24.48826 8.2e-4,10e-4 0.0407,0.0717 0.0407,0.0717 l 0.10497,-0.13446 c 33.60085,-13.9793 63.77076,-33.37765 88.95393,-57.03841 23.74539,-22.30992 43.06958,-48.3529 56.77329,-77.0288 15.51431,-29.2983 22.13052,-61.15257 22.13052,-93.67278 V 698.2645 396.85622 c 0,-30.52754 0.18616,-60.09811 -12.013,-89.07575 -22.64451,-53.78834 -78.69568,-123.94609 -168.16033,-123.94609 -72.62737,0 -122.42756,42.436 -150.72514,76.32302 v -76.32302 z"
     sodipodi:nodetypes="ccccsscssssccscccssscsssccc"
     inkscape:label="glyph_x" />
</svg>
