<?xml version="1.0" encoding="UTF-8" standalone="no"?>
<svg
   width="521.4975"
   height="1000"
   viewBox="0 0 521.49749 1000"
   version="1.1"
   id="svg5"
   sodipodi:docname="z.svg"
   inkscape:version="1.3 (0e150ed6c4, 2023-07-21)"
   xmlns:inkscape="http://www.inkscape.org/namespaces/inkscape"
   xmlns:sodipodi="http://sodipodi.sourceforge.net/DTD/sodipodi-0.dtd"
   xmlns="http://www.w3.org/2000/svg"
   xmlns:svg="http://www.w3.org/2000/svg">
  <defs
     id="defs1" />
  <sodipodi:namedview
     id="namedview1"
     pagecolor="#ffffff"
     bordercolor="#000000"
     borderopacity="0.25"
     inkscape:showpageshadow="2"
     inkscape:pageopacity="0.0"
     inkscape:pagecheckerboard="0"
     inkscape:deskcolor="#d1d1d1"
     inkscape:zoom="0.817"
     inkscape:cx="256.42595"
     inkscape:cy="500"
     inkscape:window-width="1920"
     inkscape:window-height="1094"
     inkscape:window-x="-11"
     inkscape:window-y="-11"
     inkscape:window-maximized="1"
     inkscape:current-layer="svg5" />
  <g
     id="g20"
     inkscape:label="glyph_z"
     transform="matrix(8.1301834,0,0,8.1301834,1819.6691,828.06517)">
    <path
       id="path19"
       style="fill:#ff0000;fill-opacity:0.533333;stroke:none;stroke-width:15"
       d="m -179.14601,-78.987427 -25.44806,49.604208 v -48.96187 h -11.23498 v 71.0747322 h 11.23498 l 25.44806,-52.5926562 v 52.5926562 h 10.98382 V -78.987427 h -1.73013 z"
       sodipodi:nodetypes="cccccccccccc" />
    <path
       id="path20"
       style="fill:#ff0000;fill-opacity:0.533333;stroke:#66ccff;stroke-width:0;stroke-dasharray:none"
       d="m -217.18114,-4.7444131 c 0.59418,3.3409523 3.95293,6.2940007 8.96121,8.3002685 4.25245,1.7034893 9.68713,2.7253776 15.60888,2.7254151 7.06686,2.78e-5 13.43963,-1.4551507 17.93794,-3.7873658 3.71089,-1.92397089 6.14096,-4.4455563 6.63732,-7.2383178 h -2.07378 c -3.87896,4.26367387 -12.58332,7.1577783 -22.50148,7.1644205 -9.91348,-0.00741 -18.6167,-2.90046643 -22.49631,-7.1644205 z" />
  </g>
</svg>
